<?xml version="1.0" encoding="UTF-8"?>
<svg xmlns="http://www.w3.org/2000/svg" id="Layer_2" viewBox="0 0 91.49 90">
  <g id="Layer_1-2">
    <path d="m91.37,12.48c.47-1.67-.5-3.4-2.17-3.87L58.71,0l-3.43,12.15c.88-.21,1.81-.2,2.74.06,2.91.82,4.6,3.84,3.78,6.75s-3.84,4.6-6.75,3.78c-.93-.26-1.73-.75-2.37-1.38l-3.43,12.15,12.15,3.43c-.63.64-1.12,1.44-1.38,2.37-.82,2.91.87,5.93,3.78,6.75s5.93-.87,6.75-3.78c.26-.93.27-1.86.06-2.74l12.15,3.43,8.61-30.5Z" style="fill:#8ec4fc;"></path>
    <path d="m73.66,49.6h-15.91c-.56,0-1.07.29-1.35.77l.02-.03-.02.03c-.14.24-.22.52-.22.8s.07.53.2.77l1,1.81c.22.41.34.83.34,1.3,0,.72-.28,1.39-.79,1.9-.51.51-1.18.78-1.9.79-.72,0-1.39-.28-1.9-.79h0c-.51-.51-.79-1.18-.79-1.9,0-.47.11-.89.34-1.3l1-1.8c.13-.24.2-.5.2-.77s-.07-.55-.22-.8c-.28-.48-.8-.77-1.35-.77h-11.9v-6.38c2.15-.03,4.18-.88,5.71-2.41,1.56-1.55,2.42-3.64,2.42-5.84,0-2.21-.86-4.29-2.42-5.84-1.52-1.53-3.55-2.37-5.71-2.4v-10.38c0-.87-.7-1.57-1.57-1.57H5.92c-1.58,0-3.08.62-4.19,1.73C.63,17.61,0,19.13,0,20.69v63.38c0,1.58.62,3.07,1.73,4.19,1.11,1.1,2.62,1.73,4.19,1.73h63.39c1.56,0,3.08-.63,4.18-1.73,1.12-1.11,1.73-2.61,1.73-4.19v-32.91c0-.87-.7-1.57-1.57-1.57ZM4.86,20.69c0-.36.17-.61.31-.75.14-.14.39-.31.75-.31h29.62v12.62c0,.3.16.59.42.74.13.08.28.12.43.12s.29-.03.42-.11l1.81-1c.51-.28,1.06-.43,1.65-.43.91,0,1.76.35,2.4.99.64.64,1,1.5,1,2.4s-.35,1.76-.99,2.4c-.64.64-1.5,1-2.4,1-.58,0-1.14-.14-1.65-.43l-1.81-1c-.13-.07-.27-.11-.42-.11-.15,0-.3.04-.43.12-.26.15-.42.43-.42.74v12.62h-7.81c.02-.19.02-.39.02-.58,0-2.02-.79-3.91-2.21-5.34-1.42-1.43-3.32-2.21-5.34-2.21s-3.91.78-5.34,2.21c-1.43,1.42-2.21,3.32-2.21,5.34,0,.19,0,.39.02.58h-7.81v-29.62Zm30.68,64.44H5.92c-.36,0-.61-.17-.75-.31-.14-.14-.31-.39-.31-.75v-29.62h12.62c.3,0,.59-.16.74-.42.15-.26.16-.59.01-.85l-1-1.81c-.28-.51-.43-1.06-.43-1.65,0-.91.35-1.76.99-2.4.64-.64,1.5-1,2.4-1s1.76.35,2.4.99c.64.64,1,1.5,1,2.4,0,.59-.14,1.14-.42,1.65l-1,1.81c-.15.27-.14.59.01.85.15.26.44.42.74.42h12.62v7.82c-.19-.02-.39-.02-.58-.02-2.02,0-3.91.78-5.34,2.21-1.43,1.42-2.21,3.32-2.21,5.34,0,2.02.78,3.91,2.21,5.34,1.42,1.43,3.32,2.21,5.34,2.21.19,0,.39,0,.58-.02v7.82Zm34.83-1.06c0,.36-.17.61-.31.75-.14.14-.39.31-.75.31h-29.62v-12.62c0-.3-.16-.59-.42-.74-.13-.08-.28-.12-.43-.12s-.29.03-.42.11l-1.81,1c-.51.28-1.06.43-1.65.43-.91,0-1.76-.35-2.4-.99-.64-.64-1-1.5-1-2.4,0-.91.35-1.76,1-2.4.64-.64,1.5-1,2.4-1,.58,0,1.13.14,1.65.43l1.81,1c.13.07.27.11.42.11s.3-.04.43-.12c.26-.15.42-.44.42-.74v-12.62h7.81c-.02.19-.02.39-.02.58,0,2.02.78,3.91,2.21,5.33,1.42,1.43,3.32,2.21,5.34,2.21s3.91-.78,5.34-2.21c1.43-1.42,2.21-3.32,2.21-5.34,0-.19,0-.39-.02-.58h7.82v29.62h0Z" style="fill:#8ec4fc;"></path>
  </g>
</svg>
