<?xml version="1.0" encoding="UTF-8"?>
<svg xmlns="http://www.w3.org/2000/svg" id="Layer_2" viewBox="0 0 90 79.97">
  <g id="Layer_1-2">
    <path d="m61.25,14.23c0-7.85-6.38-14.23-14.22-14.23s-14.23,6.39-14.23,14.23,6.38,14.23,14.23,14.23c7.84,0,14.22-6.39,14.22-14.23Zm-14.22,11.96c-6.6,0-11.96-5.36-11.96-11.96s5.36-11.96,11.96-11.96,11.96,5.37,11.96,11.96c0,6.6-5.37,11.96-11.96,11.96Z" style="fill:#8ec4fc;"></path>
    <path d="m65.53,21.59c-6.04,0-10.96,4.92-10.96,10.96s4.92,10.95,10.96,10.95,10.96-4.91,10.96-10.95c0-6.04-4.91-10.96-10.96-10.96Zm0,19.96c-4.97,0-9.01-4.04-9.01-9.01s4.04-9.01,9.01-9.01,9,4.04,9,9.01-4.04,9.01-9,9.01Z" style="fill:#8ec4fc;"></path>
    <path d="m0,72.62h14.19v-28.14H0v28.14Zm2.83-25.31h8.53v22.48H2.83v-22.48Z" style="fill:#8ec4fc;"></path>
    <path d="m89.61,61.86c-.51-1.09-5.47-11.04-11.28-10.01-1.61.29-3,1.76-4.94,3.79-3.3,3.47-7.82,8.22-15.03,8.22-4.4,0-9.36-1.78-14.81-5.32h11.29s.11,0,.3,0c2.96,0,4.87-1.61,4.87-4.11v-4.68l-.03-.28c-.33-1.66-1.82-4.79-5.05-4.79H16.72v27.09l.99.31c1.03.32,25.17,7.86,33.99,7.86h0s.25.01.73.01c3.8,0,23.44-.8,36.97-16.59l.59-.7-.39-.82Zm-37.18,15.28c-.38,0-.59,0-.67,0-7.48,0-27.53-5.99-32.22-7.43v-22.18h35.38c1.51,0,2.12,1.92,2.25,2.41v4.52c0,1.06-1.11,1.28-2.05,1.28h-20.24s3.35,2.53,3.35,2.53c7.37,5.6,14.14,8.44,20.12,8.44,8.42,0,13.64-5.47,17.08-9.1,1.26-1.33,2.7-2.83,3.4-2.97,2.75-.45,6.03,4.19,7.81,7.61-12.71,14.17-30.69,14.9-34.21,14.9Z" style="fill:#8ec4fc;"></path>
  </g>
</svg>
