<?xml version="1.0" encoding="UTF-8"?>
<svg xmlns="http://www.w3.org/2000/svg" id="Layer_2" viewBox="0 0 90 89.99">
  <g id="Layer_1-2">
    <path d="m70.27,7.76C62.8,2.68,54.06,0,45.01,0c-11.99,0-23.29,4.67-31.82,13.16C4.68,21.67,0,32.97,0,44.99c0,24.81,20.19,44.99,45.01,44.99s43.33-18.44,44.88-41.93c.08-.96.12-1.96.12-3.07,0-14.92-7.38-28.84-19.73-37.23Zm14.04,34.7l-35.95,1.04,24.7-26.12c6.61,6.71,10.64,15.59,11.25,25.09Zm-17.19-30.06c1.38.94,2.68,1.95,3.91,3.04l-26.05,27.55-26.81-26.81c7.33-6.82,16.81-10.56,26.84-10.56,7.92,0,15.57,2.35,22.11,6.79Zm-22.11,71.98c-21.72,0-39.4-17.67-39.4-39.38,0-10.05,3.75-19.53,10.57-26.84l27.83,27.83s0,0,.01,0c.12.11.26.2.41.27.01,0,.03.02.04.03.16.07.35.11.53.11,0,0,.01,0,.02,0,0,0,0,0,0,0h.01l39.34-1.13c0,.84-.03,1.62-.1,2.38-1.36,20.6-18.61,36.73-39.28,36.73Z" style="fill:#8ec4fc;"></path>
    <path d="m11.47,49c.77-.06,1.35-.74,1.28-1.51-.07-.82-.1-1.66-.1-2.49,0-.78-.63-1.4-1.4-1.4s-1.4.63-1.4,1.4c0,.9.04,1.82.11,2.72.06.73.67,1.29,1.4,1.29.04,0,.08,0,.12,0Z" style="fill:#8ec4fc;"></path>
    <path d="m14.06,54.09c-.24-.74-1.02-1.15-1.76-.91-.74.24-1.14,1.03-.91,1.76,2.09,6.55,6.13,12.2,11.69,16.32.25.19.54.28.83.28.43,0,.85-.19,1.13-.57.46-.62.33-1.5-.29-1.96-5.08-3.77-8.78-8.93-10.69-14.92Z" style="fill:#8ec4fc;"></path>
  </g>
</svg>
