<?xml version="1.0" encoding="UTF-8"?>
<svg xmlns="http://www.w3.org/2000/svg" id="Layer_2" viewBox="0 0 73.64 90">
  <g id="Layer_1-2">
    <g id="hotels">
      <path d="m20.09,89.86H2.81c-1.55,0-2.81-1.26-2.81-2.81V23.1c0-1.55,1.26-2.81,2.81-2.81h17.28c1.55,0,2.81,1.26,2.81,2.81v63.96c0,1.55-1.26,2.81-2.81,2.81ZM2.81,21.45c-.91,0-1.64.74-1.64,1.64v63.96c0,.91.74,1.64,1.64,1.64h17.28c.91,0,1.64-.74,1.64-1.64V23.1c0-.91-.74-1.64-1.64-1.64H2.81Z" style="fill:#8ec4fc;"></path>
      <path d="m8.66,85.58h-3.01c-1.19,0-2.15-.97-2.15-2.15V26.72c0-1.19.97-2.15,2.15-2.15h3.01c1.19,0,2.15.97,2.15,2.15v56.71c0,1.19-.97,2.15-2.15,2.15Zm-3.01-59.85c-.54,0-.99.44-.99.99v56.71c0,.54.44.99.99.99h3.01c.54,0,.99-.44.99-.99V26.72c0-.54-.44-.99-.99-.99h-3.01Z" style="fill:#8ec4fc;"></path>
      <path d="m17.24,85.58h-3.01c-1.19,0-2.15-.97-2.15-2.15V26.72c0-1.19.97-2.15,2.15-2.15h3.01c1.19,0,2.15.97,2.15,2.15v56.71c0,1.19-.97,2.15-2.15,2.15Zm-3.01-59.85c-.54,0-.99.44-.99.99v56.71c0,.54.44.99.99.99h3.01c.54,0,.99-.44.99-.99V26.72c0-.54-.44-.99-.99-.99h-3.01Z" style="fill:#8ec4fc;"></path>
      <path d="m70.83,89.86h-17.28c-1.55,0-2.81-1.26-2.81-2.81V23.1c0-1.55,1.26-2.81,2.81-2.81h17.28c1.55,0,2.81,1.26,2.81,2.81v63.96c0,1.55-1.26,2.81-2.81,2.81ZM53.55,21.45c-.91,0-1.64.74-1.64,1.64v63.96c0,.91.74,1.64,1.64,1.64h17.28c.91,0,1.64-.74,1.64-1.64V23.1c0-.91-.74-1.64-1.64-1.64h-17.28Z" style="fill:#8ec4fc;"></path>
      <path d="m59.4,85.58h-3.01c-1.19,0-2.15-.97-2.15-2.15V26.72c0-1.19.97-2.15,2.15-2.15h3.01c1.19,0,2.15.97,2.15,2.15v56.71c0,1.19-.97,2.15-2.15,2.15Zm-3.01-59.85c-.54,0-.99.44-.99.99v56.71c0,.54.44.99.99.99h3.01c.54,0,.99-.44.99-.99V26.72c0-.54-.44-.99-.99-.99h-3.01Z" style="fill:#8ec4fc;"></path>
      <path d="m67.99,85.58h-3.01c-1.19,0-2.15-.97-2.15-2.15V26.72c0-1.19.97-2.15,2.15-2.15h3.01c1.19,0,2.15.97,2.15,2.15v56.71c0,1.19-.97,2.15-2.15,2.15Zm-3.01-59.85c-.54,0-.99.44-.99.99v56.71c0,.54.44.99.99.99h3.01c.54,0,.99-.44.99-.99V26.72c0-.54-.44-.99-.99-.99h-3.01Z" style="fill:#8ec4fc;"></path>
      <path d="m49.33,90h-24.75c-1.55,0-2.81-1.26-2.81-2.81V2.81c0-1.55,1.26-2.81,2.81-2.81h24.75c1.55,0,2.81,1.26,2.81,2.81v84.39c0,1.55-1.26,2.81-2.81,2.81ZM24.58,1.17c-.91,0-1.64.74-1.64,1.64v84.39c0,.91.74,1.64,1.64,1.64h24.75c.91,0,1.64-.74,1.64-1.64V2.81c0-.91-.74-1.64-1.64-1.64,0,0-24.75,0-24.75,0Z" style="fill:#8ec4fc;"></path>
      <path d="m33.62,15.39h-3.7c-1.45,0-2.64-1.18-2.64-2.64v-3.7c0-1.45,1.18-2.64,2.64-2.64h3.7c1.45,0,2.64,1.18,2.64,2.64v3.7c0,1.45-1.18,2.64-2.64,2.64Zm-3.7-7.81c-.81,0-1.47.66-1.47,1.47v3.7c0,.81.66,1.47,1.47,1.47h3.7c.81,0,1.47-.66,1.47-1.47v-3.7c0-.81-.66-1.47-1.47-1.47h-3.7Z" style="fill:#8ec4fc;"></path>
      <path d="m43.99,15.39h-3.7c-1.45,0-2.64-1.18-2.64-2.64v-3.7c0-1.45,1.18-2.64,2.64-2.64h3.7c1.45,0,2.64,1.18,2.64,2.64v3.7c0,1.45-1.18,2.64-2.64,2.64Zm-3.7-7.81c-.81,0-1.47.66-1.47,1.47v3.7c0,.81.66,1.47,1.47,1.47h3.7c.81,0,1.47-.66,1.47-1.47v-3.7c0-.81-.66-1.47-1.47-1.47h-3.7Z" style="fill:#8ec4fc;"></path>
      <path d="m33.62,29.03h-3.7c-1.45,0-2.64-1.18-2.64-2.64v-3.7c0-1.45,1.18-2.64,2.64-2.64h3.7c1.45,0,2.64,1.18,2.64,2.64v3.7c0,1.45-1.18,2.64-2.64,2.64Zm-3.7-7.81c-.81,0-1.47.66-1.47,1.47v3.7c0,.81.66,1.47,1.47,1.47h3.7c.81,0,1.47-.66,1.47-1.47v-3.7c0-.81-.66-1.47-1.47-1.47h-3.7Z" style="fill:#8ec4fc;"></path>
      <path d="m43.99,29.03h-3.7c-1.45,0-2.64-1.18-2.64-2.64v-3.7c0-1.45,1.18-2.64,2.64-2.64h3.7c1.45,0,2.64,1.18,2.64,2.64v3.7c0,1.45-1.18,2.64-2.64,2.64Zm-3.7-7.81c-.81,0-1.47.66-1.47,1.47v3.7c0,.81.66,1.47,1.47,1.47h3.7c.81,0,1.47-.66,1.47-1.47v-3.7c0-.81-.66-1.47-1.47-1.47h-3.7Z" style="fill:#8ec4fc;"></path>
      <path d="m33.62,42.67h-3.7c-1.45,0-2.64-1.18-2.64-2.64v-3.7c0-1.45,1.18-2.64,2.64-2.64h3.7c1.45,0,2.64,1.18,2.64,2.64v3.7c0,1.45-1.18,2.64-2.64,2.64Zm-3.7-7.81c-.81,0-1.47.66-1.47,1.47v3.7c0,.81.66,1.47,1.47,1.47h3.7c.81,0,1.47-.66,1.47-1.47v-3.7c0-.81-.66-1.47-1.47-1.47h-3.7Z" style="fill:#8ec4fc;"></path>
      <path d="m43.99,42.67h-3.7c-1.45,0-2.64-1.18-2.64-2.64v-3.7c0-1.45,1.18-2.64,2.64-2.64h3.7c1.45,0,2.64,1.18,2.64,2.64v3.7c0,1.45-1.18,2.64-2.64,2.64Zm-3.7-7.81c-.81,0-1.47.66-1.47,1.47v3.7c0,.81.66,1.47,1.47,1.47h3.7c.81,0,1.47-.66,1.47-1.47v-3.7c0-.81-.66-1.47-1.47-1.47h-3.7Z" style="fill:#8ec4fc;"></path>
      <path d="m33.62,56.31h-3.7c-1.45,0-2.64-1.18-2.64-2.64v-3.7c0-1.45,1.18-2.64,2.64-2.64h3.7c1.45,0,2.64,1.18,2.64,2.64v3.7c0,1.45-1.18,2.64-2.64,2.64Zm-3.7-7.81c-.81,0-1.47.66-1.47,1.47v3.7c0,.81.66,1.47,1.47,1.47h3.7c.81,0,1.47-.66,1.47-1.47v-3.7c0-.81-.66-1.47-1.47-1.47h-3.7Z" style="fill:#8ec4fc;"></path>
      <path d="m43.99,56.31h-3.7c-1.45,0-2.64-1.18-2.64-2.64v-3.7c0-1.45,1.18-2.64,2.64-2.64h3.7c1.45,0,2.64,1.18,2.64,2.64v3.7c0,1.45-1.18,2.64-2.64,2.64Zm-3.7-7.81c-.81,0-1.47.66-1.47,1.47v3.7c0,.81.66,1.47,1.47,1.47h3.7c.81,0,1.47-.66,1.47-1.47v-3.7c0-.81-.66-1.47-1.47-1.47h-3.7Z" style="fill:#8ec4fc;"></path>
      <path d="m33.62,69.95h-3.7c-1.45,0-2.64-1.18-2.64-2.64v-3.7c0-1.45,1.18-2.64,2.64-2.64h3.7c1.45,0,2.64,1.18,2.64,2.64v3.7c0,1.46-1.18,2.64-2.64,2.64Zm-3.7-7.81c-.81,0-1.47.66-1.47,1.47v3.7c0,.81.66,1.47,1.47,1.47h3.7c.81,0,1.47-.66,1.47-1.47v-3.7c0-.81-.66-1.47-1.47-1.47h-3.7Z" style="fill:#8ec4fc;"></path>
      <path d="m43.99,69.95h-3.7c-1.45,0-2.64-1.18-2.64-2.64v-3.7c0-1.45,1.18-2.64,2.64-2.64h3.7c1.45,0,2.64,1.18,2.64,2.64v3.7c0,1.46-1.18,2.64-2.64,2.64Zm-3.7-7.81c-.81,0-1.47.66-1.47,1.47v3.7c0,.81.66,1.47,1.47,1.47h3.7c.81,0,1.47-.66,1.47-1.47v-3.7c0-.81-.66-1.47-1.47-1.47h-3.7Z" style="fill:#8ec4fc;"></path>
      <path d="m33.62,83.59h-3.7c-1.45,0-2.64-1.18-2.64-2.64v-3.7c0-1.45,1.18-2.64,2.64-2.64h3.7c1.45,0,2.64,1.18,2.64,2.64v3.7c0,1.45-1.18,2.64-2.64,2.64Zm-3.7-7.81c-.81,0-1.47.66-1.47,1.47v3.7c0,.81.66,1.47,1.47,1.47h3.7c.81,0,1.47-.66,1.47-1.47v-3.7c0-.81-.66-1.47-1.47-1.47h-3.7Z" style="fill:#8ec4fc;"></path>
      <path d="m43.99,83.59h-3.7c-1.45,0-2.64-1.18-2.64-2.64v-3.7c0-1.45,1.18-2.64,2.64-2.64h3.7c1.45,0,2.64,1.18,2.64,2.64v3.7c0,1.45-1.18,2.64-2.64,2.64Zm-3.7-7.81c-.81,0-1.47.66-1.47,1.47v3.7c0,.81.66,1.47,1.47,1.47h3.7c.81,0,1.47-.66,1.47-1.47v-3.7c0-.81-.66-1.47-1.47-1.47h-3.7Z" style="fill:#8ec4fc;"></path>
    </g>
  </g>
</svg>
