<svg
        xmlns="http://www.w3.org/2000/svg"
        xmlns:xlink="http://www.w3.org/1999/xlink"
        width="93px" height="48px">
    <path fill-rule="evenodd"  opacity="0.502" fill="rgb(255, 255, 255)"
          d="M91.307,3.365 C90.371,3.370 89.608,2.621 89.603,1.693 C89.599,0.764 90.354,0.008 91.290,0.004 C92.227,-0.000 92.990,0.748 92.994,1.676 C92.999,2.604 92.243,3.360 91.307,3.365 ZM76.447,18.238 C75.511,18.243 74.748,17.494 74.743,16.566 C74.739,15.637 75.494,14.881 76.431,14.877 C77.367,14.872 78.130,15.620 78.135,16.549 C78.139,17.478 77.384,18.234 76.447,18.238 ZM76.374,3.437 C75.438,3.442 74.675,2.694 74.670,1.765 C74.666,0.837 75.421,0.080 76.357,0.076 C77.294,0.072 78.057,0.821 78.061,1.749 C78.066,2.676 77.311,3.432 76.374,3.437 ZM61.587,33.111 C60.651,33.115 59.888,32.366 59.883,31.438 C59.879,30.510 60.634,29.755 61.571,29.750 C62.507,29.745 63.270,30.494 63.275,31.422 C63.279,32.350 62.524,33.106 61.587,33.111 ZM61.514,18.311 C60.578,18.315 59.815,17.566 59.810,16.638 C59.806,15.710 60.561,14.954 61.498,14.949 C62.434,14.944 63.197,15.693 63.202,16.621 C63.206,17.551 62.451,18.306 61.514,18.311 ZM61.441,3.510 C60.505,3.514 59.742,2.765 59.737,1.837 C59.733,0.909 60.488,0.153 61.425,0.149 C62.361,0.144 63.124,0.893 63.128,1.822 C63.133,2.750 62.378,3.506 61.441,3.510 ZM46.727,47.983 C45.791,47.988 45.028,47.239 45.023,46.311 C45.019,45.383 45.774,44.626 46.711,44.622 C47.647,44.618 48.410,45.366 48.415,46.295 C48.419,47.223 47.664,47.979 46.727,47.983 ZM46.654,33.183 C45.718,33.188 44.955,32.439 44.950,31.511 C44.946,30.582 45.701,29.827 46.638,29.822 C47.574,29.817 48.337,30.566 48.342,31.494 C48.346,32.422 47.591,33.179 46.654,33.183 ZM46.581,18.382 C45.645,18.387 44.882,17.639 44.877,16.711 C44.873,15.782 45.628,15.026 46.565,15.021 C47.501,15.017 48.264,15.766 48.269,16.694 C48.273,17.622 47.518,18.378 46.581,18.382 ZM46.508,3.582 C45.572,3.587 44.809,2.837 44.804,1.910 C44.800,0.982 45.555,0.226 46.492,0.222 C47.428,0.217 48.191,0.965 48.196,1.893 C48.200,2.822 47.445,3.578 46.508,3.582 ZM31.722,33.255 C30.785,33.260 30.022,32.511 30.018,31.582 C30.013,30.655 30.768,29.899 31.705,29.895 C32.641,29.889 33.404,30.638 33.409,31.567 C33.413,32.495 32.658,33.251 31.722,33.255 ZM31.648,18.455 C30.712,18.460 29.949,17.711 29.944,16.783 C29.940,15.855 30.695,15.098 31.632,15.094 C32.568,15.089 33.331,15.839 33.336,16.767 C33.341,17.695 32.585,18.451 31.648,18.455 ZM31.576,3.655 C30.639,3.659 29.876,2.911 29.871,1.982 C29.867,1.054 30.622,0.298 31.559,0.294 C32.495,0.289 33.258,1.038 33.263,1.966 C33.267,2.894 32.512,3.650 31.576,3.655 ZM16.715,18.528 C15.779,18.532 15.016,17.784 15.012,16.855 C15.007,15.927 15.762,15.171 16.699,15.166 C17.636,15.162 18.398,15.911 18.403,16.839 C18.407,17.767 17.652,18.523 16.715,18.528 ZM16.643,3.727 C15.706,3.732 14.943,2.983 14.938,2.055 C14.934,1.127 15.689,0.370 16.626,0.366 C17.562,0.362 18.325,1.110 18.330,2.039 C18.334,2.966 17.579,3.723 16.643,3.727 ZM1.710,3.800 C0.773,3.804 0.010,3.055 0.005,2.127 C0.001,1.199 0.756,0.443 1.693,0.439 C2.629,0.434 3.392,1.183 3.397,2.111 C3.402,3.039 2.646,3.795 1.710,3.800 Z"/>
</svg>