<?xml version="1.0" encoding="UTF-8"?>
<svg xmlns="http://www.w3.org/2000/svg" id="Layer_2" viewBox="0 0 92.9 92.9">
  <g id="Layer_1-2">
    <g id="Page-1">
      <g id="Globe">
        <circle id="Oval" cx="46.45" cy="46.45" r="45" style="fill:none; stroke:#8ec4fc; stroke-miterlimit:50; stroke-width:2.9px;"></circle>
        <path id="Shape" d="m47.76,1.74s-2.76,2.61-4.21,4.06-4.35,1.45-2.9,2.9,1.45,2.9,1.45,2.9l-1.45,1.45s0,1.45-2.9,2.9-2.9,0-4.35,1.45-1.45,1.45-2.9,1.45-1.45,1.45-2.9,1.45,0-5.81,0-5.81l2.9-1.45,2.9-1.45s1.45-2.9,0-2.9h-1.45s0-1.45-1.45-2.9l-1.45-1.45" style="fill:none; stroke:#8ec4fc; stroke-miterlimit:50; stroke-width:2.9px;"></path>
        <path id="Shape-2" d="m16.69,12.92l2.18,8.85-1.45,2.9s-2.9,0-2.9,2.9-1.45,0,0,2.9,0,4.35,0,4.35v4.35h-5.81q-1.45,0-2.9,1.45t-1.45,2.9v1.45l-1.45,2.9-1.45,1.45" style="fill:none; stroke:#8ec4fc; stroke-miterlimit:50; stroke-width:2.9px;"></path>
        <path id="Shape-3" d="m2.18,54.29c1.45,1.45,2.9,1.45,2.9,1.45,0,0,6.53-2.03,7.98-.58s1.45,4.35,1.45,4.35v1.45s2.9,4.35,4.35,4.35h1.45s1.45,1.45,2.9,1.45,2.9,1.45,2.9,1.45c0,0,1.45,4.35,0,4.35s-1.45,1.45-1.45,1.45c0,0,0,5.81,2.9,7.26s5.81,2.9,7.26,4.35,2.9,0,2.9,1.45,2.9,4.35,8.71,4.35" style="fill:none; stroke:#8ec4fc; stroke-miterlimit:50; stroke-width:2.9px;"></path>
        <path id="Shape-4" d="m91.45,50.81s-4.35-4.35-4.35-2.9-1.45,2.9-1.45,5.81-1.45,7.26-1.45,7.26l-2.9-2.9,1.45-7.26-4.35-4.35h-2.9s1.45,2.9,1.45,4.35v5.81s-2.9,5.81-2.9,7.26-1.45,0-2.9,2.9-2.9,2.9-4.35,5.81-4.35,4.35-5.81,7.26-2.9,1.45-2.9,0-2.9-4.35-1.45-5.81,0-2.9,1.45-4.35,2.9-1.45,1.45-2.9-2.9-1.45-2.9-2.9v-5.81s-2.9-4.35-4.35-2.9l-2.9,2.9-5.81-4.35,2.9-7.26-1.45-5.81s4.35-4.35,4.35-5.81,1.45-2.9,1.45-2.9l-1.45-5.81s-1.45-1.45,1.45,0,4.35,4.35,4.35,4.35l4.35-1.45v-1.45c0-1.45,1.45-4.35,2.9-4.35h2.9l5.81-5.81s-5.81-1.45-5.81-2.9,0-2.9,1.45-4.35,4.35-1.45,4.35-1.45" style="fill:none; stroke:#8ec4fc; stroke-miterlimit:50; stroke-width:2.9px;"></path>
      </g>
    </g>
  </g>
</svg>
